<?xml version="1.0" encoding="utf-8"?>
<!-- Generator: Adobe Illustrator 21.0.2, SVG Export Plug-In . SVG Version: 6.00 Build 0)  -->
<svg version="1.1" id="Dashboard" xmlns="http://www.w3.org/2000/svg" xmlns:xlink="http://www.w3.org/1999/xlink" x="0px" y="0px"
	 viewBox="0 0 19 16.2" style="enable-background:new 0 0 19 16.2;" xml:space="preserve">
<style type="text/css">
	.st0{fill:#E46F57;}
</style>
<g>
	<g>
		<g>
			<path class="st0" d="M12.1,1.2c1.1,0,1.9,0.9,1.9,2v4c0,1.1-0.9,2-2,2h-1c-1.1,0-2-0.9-2-2v-4c0-1.1,0.9-2,2-2H12.1 M12.1,0.2H11
				c-1.6,0-3,1.4-3,3v4c0,1.6,1.4,3,3,3h1c1.6,0,3-1.4,3-3v-4C15,1.6,13.7,0.2,12.1,0.2L12.1,0.2z"/>
		</g>
		<g>
			<g>
				<path class="st0" d="M12,10.2v1c0,0.5,0.4,0.9,0.9,1c2.2,0.3,4.5,0.8,5.1,1.2v1.8H5l0-1.8c0.6-0.4,2.9-1,5.1-1.2
					c0.5-0.1,0.9-0.5,0.9-1v-1H12 M13,9.2h-3v2c0,0-6,0.7-6,2c0,0.5,0,3,0,3h15c0,0,0-2.5,0-3c0-1.3-6-2-6-2V9.2L13,9.2z"/>
			</g>
		</g>
	</g>
	<g>
		<path class="st0" d="M5,6.8V3.6C5,2.8,5.9,2,7,2c0-0.3,0-0.5,0-0.8c-1.6,0-3,1.1-3,2.4v3.2c0,1.3,1.4,2.4,3,2.4C7,9,7,8.7,7,8.4
			C5.9,8.4,5,7.7,5,6.8z"/>
		<g>
			<path class="st0" d="M1,15.2l0-2c0.2-0.6,3.4-2.7,5.1-3C6.6,10.1,7,9.7,7,9.2v-1c0-0.3,0,0.3,0,0H6c0,0,0,1,0,1
				C5.1,9.4,0.1,11.3,0,13c0,0.5,0,3.2,0,3.2h2c0-0.3,0-0.7,0-1H1z"/>
		</g>
	</g>
</g>
</svg>
