<?xml version="1.0" encoding="utf-8"?>
<!-- Generator: Adobe Illustrator 21.0.2, SVG Export Plug-In . SVG Version: 6.00 Build 0)  -->
<svg version="1.1" id="Layer_19" xmlns="http://www.w3.org/2000/svg" xmlns:xlink="http://www.w3.org/1999/xlink" x="0px" y="0px"
	 viewBox="0 0 258.1 502.1" style="enable-background:new 0 0 258.1 502.1;" xml:space="preserve">
<style type="text/css">
	.st0{fill:#E46F57;}
</style>
<path class="st0" d="M219.7,2.5h-4.8V0h-41.8v2.5H42.6C21.9,2.5,5,19.4,5,40.1v7.7H2v23.5h3v28.5H2.9v18.4H5v25.3H2.9v18.4H5v300.5
	c0,20.7,16.9,37.5,37.6,37.5h177c20.7,0,37.5-16.9,37.5-37.5V40.1C257.3,19.4,240.4,2.5,219.7,2.5z M110.9,43.4h44.4v9.2h-44.4
	L110.9,43.4L110.9,43.4z M90.7,43.2c2.6,0,4.8,2.1,4.8,4.8c0,2.6-2.1,4.8-4.8,4.8c-2.6,0-4.8-2.1-4.8-4.8
	C85.9,45.4,88.1,43.2,90.7,43.2z M131.6,476c-12.3,0-22.2-9.9-22.2-22.2c0-12.3,9.9-22.2,22.2-22.2c12.3,0,22.2,9.9,22.2,22.2
	S143.9,476,131.6,476z M240.1,411h-217V88h217.1v323H240.1z"/>
</svg>
