<?xml version="1.0" encoding="utf-8"?>
<!-- Generator: Adobe Illustrator 21.0.2, SVG Export Plug-In . SVG Version: 6.00 Build 0)  -->
<svg version="1.1" id="Layer_19" xmlns="http://www.w3.org/2000/svg" xmlns:xlink="http://www.w3.org/1999/xlink" x="0px" y="0px"
	 viewBox="0 0 2035.1 1461.8" style="enable-background:new 0 0 2035.1 1461.8;" xml:space="preserve">
<style type="text/css">
	.st0{fill:none;stroke:#E46F57;stroke-width:5;stroke-miterlimit:10;}
	.st1{fill:#E46F57;}
</style>
<path class="st0" d="M505.6,626h-98.1c-6.6,0-12-5.4-12-12v-98.1c0-6.6,5.4-12,12-12h98.1c6.6,0,12,5.4,12,12V614
	C517.6,620.6,512.2,626,505.6,626z"/>
<g>
	<path class="st1" d="M486.8,573.2l-21.6-0.5l12.1,18l-8.9,5.2l-11.2-19.1L446.2,596l-9.1-5.2l12.1-18l-21.6,0.5v-9.8l21.6,0.5
		l-12.1-18l9.1-5.2l10.9,18.9l11.2-18.9l8.9,5.2l-12.1,18l21.6-0.5V573.2z"/>
</g>
</svg>
