<?xml version="1.0" encoding="utf-8"?>
<!-- Generator: Adobe Illustrator 21.0.2, SVG Export Plug-In . SVG Version: 6.00 Build 0)  -->
<svg version="1.1" id="Layer_47" xmlns="http://www.w3.org/2000/svg" xmlns:xlink="http://www.w3.org/1999/xlink" x="0px" y="0px"
	 viewBox="0 0 98.5 98.6" style="enable-background:new 0 0 98.5 98.6;" xml:space="preserve">
<style type="text/css">
	.st0{fill:#54C7C3;}
</style>
<g>
	<path class="st0" d="M49.5,1C22.7,1,1,22.7,1,49.5C1,76.3,22.7,98,49.5,98C76.3,98,98,76.3,98,49.5C98,22.7,76.3,1,49.5,1z
		 M64.5,45.9L46.3,64.1c-0.2,0.3-0.6,0.4-0.9,0.4c-0.4,0-0.7-0.1-0.9-0.4l-8.5-8.5c-0.5-0.5-0.5-1.4,0-1.9l3.8-3.8
		c0.2-0.3,0.6-0.4,0.9-0.4c0.4,0,0.7,0.1,0.9,0.4l3.8,3.8l13.5-13.5c0.5-0.5,1.4-0.5,1.9,0l3.8,3.8c0.2,0.3,0.4,0.6,0.4,0.9
		C64.8,45.3,64.7,45.6,64.5,45.9z"/>
</g>
</svg>
