<?xml version="1.0" encoding="utf-8"?>
<!-- Generator: Adobe Illustrator 21.0.2, SVG Export Plug-In . SVG Version: 6.00 Build 0)  -->
<svg version="1.1" id="Layer_19" xmlns="http://www.w3.org/2000/svg" xmlns:xlink="http://www.w3.org/1999/xlink" x="0px" y="0px"
	 viewBox="0 0 78.8 56" style="enable-background:new 0 0 78.8 56;" xml:space="preserve">
<style type="text/css">
	.st0{fill:#E46F57;}
</style>
<g>
	<g>
		<path class="st0" d="M71.9,56H6.7C3,56,0,53,0,49.3V6.7C0,3,3,0,6.7,0h65.2c3.7,0,6.7,3,6.7,6.7v42.7C78.6,53,75.6,56,71.9,56
			L71.9,56z M6.7,3.6C5,3.6,3.6,5,3.6,6.7v42.7c0,1.7,1.4,3.1,3.1,3.1h65.2c1.7,0,3.1-1.4,3.1-3.1V6.7c0-1.7-1.4-3.1-3.1-3.1H6.7
			L6.7,3.6z"/>
	</g>
	<g>
		<path class="st0" d="M71.9,56H6.7c-2.7,0-5.2-1.7-6.2-4.3c-0.3-0.7-0.1-1.5,0.5-2L26.4,27c0.7-0.7,1.9-0.6,2.5,0.1
			c0.7,0.7,0.6,1.9-0.1,2.5L4.4,51.4c0.6,0.6,1.4,1,2.3,1h65.2c0.9,0,1.7-0.4,2.3-1l-24.6-22c-0.7-0.7-0.8-1.8-0.1-2.5
			c0.7-0.7,1.8-0.8,2.5-0.1l25.7,23c0.6,0.5,0.7,1.3,0.5,2C77.1,54.3,74.6,56,71.9,56L71.9,56z"/>
	</g>
	<g>
		<path class="st0" d="M39.3,39.9c-0.4,0-0.9-0.2-1.2-0.5L0.9,6.3C0.4,5.8,0.2,5,0.4,4.3C1.4,1.7,3.9,0,6.7,0h65.2
			c2.7,0,5.2,1.7,6.2,4.3c0.3,0.7,0.1,1.5-0.5,2L40.5,39.4C40.1,39.7,39.7,39.9,39.3,39.9L39.3,39.9z M4.4,4.6l34.9,31.1L74.1,4.6
			c-0.6-0.6-1.4-1-2.3-1H6.7C5.8,3.6,5,4,4.4,4.6L4.4,4.6z"/>
	</g>
</g>
</svg>
